<mxfile host="65bd71144e">
    <diagram id="059DMJA8vuv_cjl8NMph" name="Страница 1">
        <mxGraphModel dx="878" dy="683" grid="1" gridSize="10" guides="1" tooltips="1" connect="1" arrows="1" fold="1" page="1" pageScale="1" pageWidth="827" pageHeight="1169" math="0" shadow="0">
            <root>
                <mxCell id="0"/>
                <mxCell id="1" parent="0"/>
                <mxCell id="9" value="Yes" style="edgeStyle=none;html=1;fontFamily=Helvetica;fontSize=14;exitX=1;exitY=0.5;exitDx=0;exitDy=0;entryX=0;entryY=0.5;entryDx=0;entryDy=0;fontStyle=0" parent="1" source="58" target="59" edge="1">
                    <mxGeometry relative="1" as="geometry">
                        <mxPoint x="547.75" y="640" as="sourcePoint"/>
                        <mxPoint x="590" y="640" as="targetPoint"/>
                    </mxGeometry>
                </mxCell>
                <mxCell id="31" value="No" style="edgeStyle=none;html=1;fontFamily=Helvetica;fontSize=14;exitX=0.5;exitY=1;exitDx=0;exitDy=0;fontStyle=0" parent="1" source="58" target="30" edge="1">
                    <mxGeometry relative="1" as="geometry">
                        <mxPoint x="454" y="710" as="sourcePoint"/>
                    </mxGeometry>
                </mxCell>
                <mxCell id="16" style="edgeStyle=none;html=1;entryX=0.5;entryY=0;entryDx=0;entryDy=0;fontFamily=Helvetica;fontSize=14;fontStyle=0" parent="1" source="4" target="15" edge="1">
                    <mxGeometry relative="1" as="geometry"/>
                </mxCell>
                <mxCell id="4" value="array[length]" style="shape=parallelogram;perimeter=parallelogramPerimeter;whiteSpace=wrap;html=1;fixedSize=1;fontFamily=Helvetica;fontSize=14;fontStyle=0" parent="1" vertex="1">
                    <mxGeometry x="394" y="220" width="120" height="60" as="geometry"/>
                </mxCell>
                <mxCell id="32" style="edgeStyle=none;html=1;entryX=1;entryY=0.5;entryDx=0;entryDy=0;fontFamily=Helvetica;fontSize=14;exitX=0.5;exitY=1;exitDx=0;exitDy=0;fontStyle=0" parent="1" source="59" target="30" edge="1">
                    <mxGeometry relative="1" as="geometry">
                        <Array as="points">
                            <mxPoint x="700" y="800"/>
                        </Array>
                        <mxPoint x="734" y="680" as="sourcePoint"/>
                    </mxGeometry>
                </mxCell>
                <mxCell id="13" style="edgeStyle=none;html=1;entryX=0.5;entryY=0;entryDx=0;entryDy=0;fontFamily=Helvetica;fontSize=14;fontStyle=0" parent="1" source="12" target="4" edge="1">
                    <mxGeometry relative="1" as="geometry"/>
                </mxCell>
                <mxCell id="12" value="Start" style="ellipse;whiteSpace=wrap;html=1;fontFamily=Helvetica;fontSize=14;fontStyle=0" parent="1" vertex="1">
                    <mxGeometry x="394" y="110" width="120" height="80" as="geometry"/>
                </mxCell>
                <mxCell id="54" value="" style="edgeStyle=none;html=1;fontSize=14;fontStyle=0" edge="1" parent="1" source="15" target="53">
                    <mxGeometry relative="1" as="geometry"/>
                </mxCell>
                <mxCell id="15" value="i = 0;&lt;br style=&quot;font-size: 14px;&quot;&gt;index = 0;&lt;br style=&quot;font-size: 14px;&quot;&gt;newArray[length];" style="rounded=0;whiteSpace=wrap;html=1;fontFamily=Helvetica;fontSize=14;fontStyle=0" parent="1" vertex="1">
                    <mxGeometry x="394" y="310" width="120" height="60" as="geometry"/>
                </mxCell>
                <mxCell id="19" value="Yes" style="edgeStyle=none;html=1;fontFamily=Helvetica;fontSize=14;exitX=0.5;exitY=1;exitDx=0;exitDy=0;entryX=0.5;entryY=0;entryDx=0;entryDy=0;fontStyle=0" parent="1" source="53" target="58" edge="1">
                    <mxGeometry relative="1" as="geometry">
                        <mxPoint x="454" y="520" as="sourcePoint"/>
                        <mxPoint x="452.6729019211325" y="570.9908998988878" as="targetPoint"/>
                    </mxGeometry>
                </mxCell>
                <mxCell id="33" style="edgeStyle=none;html=1;exitX=1;exitY=0.5;exitDx=0;exitDy=0;fontSize=14;fontStyle=0" parent="1" source="53" target="27" edge="1">
                    <mxGeometry relative="1" as="geometry">
                        <Array as="points">
                            <mxPoint x="810" y="460"/>
                            <mxPoint x="810" y="930"/>
                        </Array>
                        <mxPoint x="541" y="460" as="sourcePoint"/>
                    </mxGeometry>
                </mxCell>
                <mxCell id="29" value="" style="edgeStyle=none;html=1;fontFamily=Helvetica;fontSize=14;fontStyle=0" parent="1" source="27" target="28" edge="1">
                    <mxGeometry relative="1" as="geometry"/>
                </mxCell>
                <mxCell id="27" value="newArray" style="shape=parallelogram;perimeter=parallelogramPerimeter;whiteSpace=wrap;html=1;fixedSize=1;fontFamily=Helvetica;fontSize=14;fontStyle=0" parent="1" vertex="1">
                    <mxGeometry x="394" y="900" width="120" height="60" as="geometry"/>
                </mxCell>
                <mxCell id="28" value="End" style="ellipse;whiteSpace=wrap;html=1;fontFamily=Helvetica;fontSize=14;fontStyle=0" parent="1" vertex="1">
                    <mxGeometry x="394" y="1020" width="120" height="60" as="geometry"/>
                </mxCell>
                <mxCell id="34" style="edgeStyle=none;html=1;entryX=0;entryY=0.5;entryDx=0;entryDy=0;fontFamily=Helvetica;fontSize=14;fontStyle=0" parent="1" source="30" target="53" edge="1">
                    <mxGeometry relative="1" as="geometry">
                        <Array as="points">
                            <mxPoint x="330" y="800"/>
                            <mxPoint x="330" y="465"/>
                        </Array>
                        <mxPoint x="367.5" y="465" as="targetPoint"/>
                    </mxGeometry>
                </mxCell>
                <mxCell id="30" value="i++;" style="whiteSpace=wrap;html=1;fontFamily=Helvetica;fontSize=14;fontStyle=0" parent="1" vertex="1">
                    <mxGeometry x="394" y="770" width="120" height="60" as="geometry"/>
                </mxCell>
                <mxCell id="36" style="edgeStyle=none;html=1;fontFamily=Helvetica;fontSize=14;fontStyle=0" parent="1" source="35" target="39" edge="1">
                    <mxGeometry relative="1" as="geometry">
                        <mxPoint x="101.73913043478262" y="200" as="targetPoint"/>
                    </mxGeometry>
                </mxCell>
                <mxCell id="35" value="Start" style="ellipse;whiteSpace=wrap;html=1;fontFamily=Helvetica;fontSize=14;fontStyle=0" parent="1" vertex="1">
                    <mxGeometry x="40" y="80" width="120" height="80" as="geometry"/>
                </mxCell>
                <mxCell id="47" value="" style="edgeStyle=none;html=1;fontFamily=Helvetica;fontSize=14;entryX=0.5;entryY=0;entryDx=0;entryDy=0;fontStyle=0" parent="1" source="39" target="43" edge="1">
                    <mxGeometry relative="1" as="geometry">
                        <mxPoint x="100.76086956521738" y="440" as="targetPoint"/>
                    </mxGeometry>
                </mxCell>
                <mxCell id="39" value="Создаем массив,&amp;nbsp;&lt;br&gt;&lt;span&gt;заполняем массив введенными с консоли строками&lt;/span&gt;" style="rounded=0;whiteSpace=wrap;html=1;fontSize=15;" parent="1" vertex="1">
                    <mxGeometry x="2.5" y="210" width="195" height="80" as="geometry"/>
                </mxCell>
                <mxCell id="45" style="edgeStyle=none;html=1;fontFamily=Helvetica;fontSize=14;entryX=0.5;entryY=0;entryDx=0;entryDy=0;fontStyle=0" parent="1" source="43" edge="1" target="49">
                    <mxGeometry relative="1" as="geometry">
                        <mxPoint x="98.75" y="470" as="targetPoint"/>
                    </mxGeometry>
                </mxCell>
                <mxCell id="43" value="Формируем новый массив" style="shape=process;whiteSpace=wrap;html=1;backgroundOutline=1;fontFamily=Helvetica;fontSize=15;" parent="1" vertex="1">
                    <mxGeometry x="6.25" y="340" width="187.5" height="105" as="geometry"/>
                </mxCell>
                <mxCell id="44" value="Формируем новый массив" style="shape=process;whiteSpace=wrap;html=1;backgroundOutline=1;fontFamily=Helvetica;fontSize=14;fontStyle=0" parent="1" vertex="1">
                    <mxGeometry x="367.5" y="10" width="167" height="60" as="geometry"/>
                </mxCell>
                <mxCell id="52" style="edgeStyle=none;html=1;fontFamily=Helvetica;fontSize=14;fontStyle=0" parent="1" source="49" target="51" edge="1">
                    <mxGeometry relative="1" as="geometry"/>
                </mxCell>
                <mxCell id="49" value="Выводим новый массив в консоль" style="whiteSpace=wrap;html=1;fontSize=14;fontStyle=0" parent="1" vertex="1">
                    <mxGeometry x="26.87" y="487.5" width="146.25" height="82.5" as="geometry"/>
                </mxCell>
                <mxCell id="51" value="End" style="ellipse;whiteSpace=wrap;html=1;fontFamily=Helvetica;fontSize=14;fontStyle=0" parent="1" vertex="1">
                    <mxGeometry x="40" y="610" width="120" height="60" as="geometry"/>
                </mxCell>
                <mxCell id="53" value="i &amp;lt; length" style="rhombus;whiteSpace=wrap;html=1;fontSize=14;rounded=0;fontStyle=0" vertex="1" parent="1">
                    <mxGeometry x="368.5" y="410" width="166" height="100" as="geometry"/>
                </mxCell>
                <mxCell id="58" value="array[i].Length &amp;lt;= 3" style="rhombus;whiteSpace=wrap;html=1;fontSize=14;rounded=0;fontStyle=0" vertex="1" parent="1">
                    <mxGeometry x="371" y="580" width="166" height="100" as="geometry"/>
                </mxCell>
                <mxCell id="59" value="newArray[index] = array[i];&lt;br style=&quot;font-size: 14px;&quot;&gt;index++;" style="whiteSpace=wrap;html=1;fontFamily=Helvetica;fontSize=14;fontStyle=0" vertex="1" parent="1">
                    <mxGeometry x="600" y="595" width="200" height="70" as="geometry"/>
                </mxCell>
            </root>
        </mxGraphModel>
    </diagram>
</mxfile>